<svg width="32" height="32" viewBox="0 0 32 32" fill="none" xmlns="http://www.w3.org/2000/svg">
<path d="M27.673 6.2546H26.5458L26.5456 5.1272C26.5456 4.45084 26.0948 4 25.4184 4C24.742 4 24.2912 4.45084 24.2912 5.1272V6.2544H23.164C22.4876 6.2544 22.0368 6.70525 22.0368 7.38161C22.0368 8.05797 22.4876 8.50881 23.164 8.50881H24.2912V9.63601C24.2912 10.3124 24.742 10.7632 25.4184 10.7632C26.0948 10.7632 26.5456 10.3124 26.5456 9.63601V8.509H27.6728C28.3492 8.509 28.8 8.05816 28.8 7.3818C28.8002 6.70544 28.3493 6.2546 27.673 6.2546H27.673ZM15.2729 16.4C14.0328 16.4 13.0183 17.4145 13.0183 18.6546C13.0183 19.8947 14.0328 20.9092 15.2729 20.9092C16.5129 20.9092 17.5275 19.8947 17.5275 18.6546C17.5275 17.4145 16.5129 16.4 15.2729 16.4ZM23.1636 11.8908H21.6982L21.36 10.8763C21.2474 10.5381 21.1345 10.3126 20.9092 9.97438V9.86172L20.7965 9.74906C20.12 8.96004 19.2183 8.509 18.2038 8.509H12.3416C11.7781 8.509 11.1018 8.73452 10.6507 9.0727C10.5381 9.0727 10.5381 9.18536 10.4252 9.18536C9.86172 9.63639 9.41088 10.1999 9.18536 10.8763L8.84718 11.8908H7.3818C5.46538 11.8908 4 13.3562 4 15.2726V24.2909C4 26.2073 5.46538 27.6727 7.3818 27.6727H23.1637C25.0801 27.6727 26.5455 26.2073 26.5455 24.2909V15.2726C26.5453 13.3564 25.0799 11.8908 23.1635 11.8908H23.1636ZM15.2729 23.1638C12.793 23.1638 10.7639 21.1347 10.7639 18.6548C10.7639 16.1749 12.793 14.1458 15.2729 14.1458C17.7528 14.1458 19.7819 16.1749 19.7819 18.6548C19.7819 21.1347 17.7528 23.1638 15.2729 23.1638Z" fill="#A3A3A3"/>
</svg>
