<svg width="24" height="21" viewBox="0 0 24 21" fill="none" xmlns="http://www.w3.org/2000/svg">
<g clip-path="url(#clip0_1417_5106)">
<path d="M3.27998 15.7203C2.95998 15.7203 2.67998 15.7103 2.39998 15.7203C1.86998 15.7503 1.76998 15.6803 1.74998 15.1403C1.72998 14.4803 1.73998 13.8303 1.73998 13.1703C1.73998 9.42027 1.73998 5.68027 1.72998 1.93027C1.72998 1.28027 1.72998 1.28027 2.37998 1.28027C5.92998 1.28027 9.47998 1.28027 13.02 1.28027C13.26 1.28027 13.51 1.30027 13.8 1.32027C13.8 1.72027 13.81 2.10027 13.8 2.47027C13.79 2.75027 13.88 2.87027 14.18 2.85027C15.66 2.75027 15.35 2.88027 15.36 4.01027C15.37 5.31027 15.35 6.61027 15.36 7.91027C15.36 8.06027 15.5 8.25027 15.64 8.35027C16.49 8.96027 17.18 9.68027 17.52 10.7103C17.88 11.7903 17.7 12.7803 17.21 13.7603C17.13 13.9203 17.03 14.2003 17.11 14.3003C17.32 14.5603 17.6 14.7703 17.88 14.9403C17.94 14.9803 18.14 14.7803 18.31 14.6703C19.47 15.8703 20.66 17.1203 21.81 18.3103C21.34 18.8103 20.78 19.4103 20.21 19.9903C20.16 20.0403 19.95 20.0503 19.9 19.9903C18.75 18.8503 17.62 17.7103 16.49 16.5603C16.47 16.5403 16.47 16.5103 16.44 16.4603C16.49 16.4003 16.54 16.3303 16.6 16.2603C16.64 16.2103 16.74 16.1503 16.73 16.1103C16.71 15.9903 16.69 15.8303 16.6 15.7603C16.35 15.5603 16.08 15.2503 15.81 15.2403C15.57 15.2403 15.27 15.5203 15.34 15.9303C15.39 16.2103 15.34 16.5003 15.37 16.7903C15.4 17.1403 15.21 17.2603 14.91 17.2703C14.68 17.2703 14.44 17.2603 14.21 17.2603C10.76 17.2603 7.30998 17.2703 3.84998 17.2803C3.34998 17.2803 3.27998 17.2103 3.26998 16.7203C3.26998 16.4103 3.26998 16.0903 3.26998 15.7303L3.27998 15.7203ZM3.82998 16.7003H14.78V15.7103C13.48 16.0503 12.3 15.8603 11.24 15.1003C10.18 14.3303 9.60998 13.2703 9.53998 11.9703C9.46998 10.7803 9.96998 9.79027 10.8 8.96027C11.91 7.85027 13.27 7.60027 14.82 7.95027C14.82 6.44027 14.82 4.98027 14.82 3.52027C14.82 3.23027 14.62 3.30027 14.44 3.30027C11.07 3.31027 7.69998 3.33027 4.32998 3.31027C3.90998 3.31027 3.82998 3.40027 3.82998 3.80027C3.83998 7.81027 3.82998 11.8103 3.82998 15.8203C3.82998 16.1003 3.82998 16.3903 3.82998 16.7003ZM17.17 11.8903C17.17 9.90027 15.83 8.42027 13.68 8.31027C11.73 8.22027 10.05 9.86027 10.03 11.8103C10.01 13.7203 11.58 15.3203 13.49 15.3603C15.6 15.4103 17.24 13.7103 17.17 11.8803V11.8903ZM2.31998 1.79027V15.1603H3.28998C3.28998 14.9303 3.28998 14.7303 3.28998 14.5303C3.28998 11.9503 3.28998 9.36027 3.28998 6.78027C3.28998 5.62027 3.29998 4.45027 3.28998 3.29027C3.28998 2.94027 3.41998 2.82027 3.72998 2.81027C3.84998 2.81027 3.97998 2.80027 4.09998 2.80027C5.90998 2.80027 7.71998 2.80027 9.51998 2.80027C10.64 2.80027 11.76 2.82027 12.89 2.84027C13.17 2.84027 13.31 2.73027 13.26 2.45027C13.21 2.17027 13.43 1.77027 12.84 1.77027C9.64998 1.79027 6.45998 1.78027 3.26998 1.79027C2.96998 1.79027 2.66998 1.79027 2.33998 1.79027H2.31998ZM17.97 17.2103C18.48 17.7603 18.95 18.2803 19.43 18.7803C20.11 19.4703 20.11 19.4703 20.78 18.7603C21.12 18.4003 21.1133 18.0436 20.76 17.6903C20.21 17.1403 19.67 16.6003 19.09 16.0303C18.68 16.4603 18.29 16.8703 17.96 17.2203L17.97 17.2103ZM16.98 16.4703C17.27 16.6703 17.39 16.9903 17.7 16.7003C18 16.4203 18.3 16.1503 18.58 15.8503C18.65 15.7803 18.66 15.5703 18.6 15.4903C18.49 15.3303 18.31 15.2203 18.12 15.4103C17.76 15.7503 17.41 16.0803 16.99 16.4703H16.98ZM16.57 14.4903C16.4 14.9303 16.82 15.5403 17.15 15.5903C17.22 15.6003 17.35 15.5703 17.36 15.5303C17.4 15.4403 17.42 15.2903 17.36 15.2403C17.11 14.9803 16.83 14.7403 16.56 14.4903H16.57Z" fill="black"/>
<path d="M9.32004 6.54953C7.96004 6.54953 6.61004 6.54953 5.25004 6.54953C5.04004 6.54953 4.76004 6.61953 4.77004 6.27953C4.77004 5.96953 5.01004 5.97953 5.24004 5.97953C7.87004 5.97953 10.5 5.97953 13.13 5.98953C13.29 5.98953 13.47 5.95953 13.62 6.00953C13.72 6.03953 13.86 6.19953 13.85 6.26953C13.83 6.37953 13.69 6.52953 13.59 6.53953C13.2 6.56953 12.8 6.54953 12.4 6.54953C11.37 6.54953 10.35 6.54953 9.32004 6.54953Z" fill="black"/>
<path d="M8.07001 8.03006C7.14001 8.03006 6.21001 8.03006 5.28001 8.03006C5.16001 8.03006 5.02001 8.03006 4.92001 7.98006C4.84001 7.94006 4.76001 7.81006 4.76001 7.73006C4.76001 7.66006 4.88001 7.56006 4.96001 7.54006C5.12001 7.50006 5.29001 7.50006 5.45001 7.50006C7.23001 7.50006 9.01001 7.50006 10.79 7.50006C11.02 7.50006 11.37 7.42006 11.36 7.77006C11.36 8.08006 11.02 8.05006 10.77 8.05006C9.87001 8.05006 8.96001 8.05006 8.06001 8.05006L8.07001 8.03006Z" fill="black"/>
<path d="M7.59998 15.5003C6.84998 15.5003 6.08998 15.5003 5.33998 15.5003C5.22998 15.5003 5.10998 15.5203 5.01998 15.4803C4.90998 15.4303 4.81998 15.3203 4.72998 15.2403C4.81998 15.1503 4.89998 15.0403 5.00998 14.9803C5.07998 14.9403 5.19998 14.9503 5.28998 14.9503C6.80998 14.9503 8.32998 14.9503 9.84998 14.9503C9.92998 14.9503 10.03 14.9303 10.09 14.9703C10.2 15.0503 10.28 15.1603 10.37 15.2603C10.27 15.3403 10.18 15.4703 10.07 15.4803C9.79998 15.5103 9.51998 15.5003 9.24998 15.5003C8.69998 15.5003 8.14998 15.5003 7.60998 15.5003H7.59998Z" fill="black"/>
<path d="M7.20002 8.95966C7.82002 8.95966 8.43002 8.95966 9.05002 8.95966C9.19002 8.95966 9.34002 8.94966 9.46002 8.99966C9.58002 9.04966 9.67002 9.16966 9.78002 9.25966C9.66002 9.34966 9.54002 9.49966 9.43002 9.50966C7.98002 9.52966 6.53002 9.52966 5.07002 9.50966C4.97002 9.50966 4.87002 9.35966 4.77002 9.27966C4.90002 9.16966 5.02002 8.96966 5.16002 8.96966C5.84002 8.93966 6.53002 8.95966 7.21002 8.95966C7.21002 8.95966 7.21002 8.95966 7.21002 8.96966L7.20002 8.95966Z" fill="black"/>
<path d="M6.94001 4.59031C8.46001 4.59031 9.96001 4.59031 11.47 4.59031C11.57 4.59031 11.67 4.72031 11.77 4.79031C11.7 4.89031 11.64 5.01031 11.54 5.09031C11.49 5.14031 11.39 5.13031 11.31 5.13031C9.99001 5.13031 8.66001 5.13031 7.34001 5.13031C6.97001 5.13031 6.85001 4.96031 6.95001 4.57031L6.94001 4.59031Z" fill="black"/>
<path d="M7.02 13.4498C7.65 13.4498 8.28 13.4498 8.91 13.4498C9.11 13.4498 9.31 13.4798 9.25 13.7198C9.22 13.8398 9.03 13.9998 8.9 13.9998C7.63 14.0198 6.36 14.0298 5.09 13.9998C4.98 13.9998 4.87 13.7998 4.75 13.6998C4.86 13.6198 4.98 13.4698 5.09 13.4598C5.73 13.4398 6.37 13.4498 7.02 13.4498Z" fill="black"/>
<path d="M6.89999 10.4899C7.49999 10.4899 8.09999 10.4699 8.69999 10.4999C8.84999 10.4999 8.97999 10.6699 9.11999 10.7599C8.97999 10.8399 8.83999 10.9899 8.69999 10.9899C7.49999 11.0099 6.29999 11.0199 5.09999 10.9999C4.97999 10.9999 4.85999 10.8099 4.73999 10.7099C4.85999 10.6399 4.96999 10.4999 5.08999 10.4999C5.68999 10.4799 6.28999 10.4999 6.88999 10.4999L6.89999 10.4899Z" fill="black"/>
<path d="M6.81999 12.4704C6.24999 12.4704 5.66999 12.4804 5.09999 12.4704C4.97999 12.4704 4.85999 12.3504 4.73999 12.2804C4.85999 12.1704 4.96999 11.9604 5.08999 11.9604C6.26999 11.9404 7.43999 11.9604 8.61999 11.9804C8.71999 11.9804 8.80999 12.1604 8.89999 12.2504C8.79999 12.3204 8.68999 12.4504 8.58999 12.4604C7.99999 12.4804 7.40999 12.4604 6.81999 12.4604V12.4704Z" fill="black"/>
<path d="M13.8 13.0996H14.37C14.37 12.3196 14.37 11.5796 14.37 10.8296C14.37 10.5896 14.27 10.1996 14.61 10.1996C15.02 10.1996 14.87 10.6096 14.88 10.8396C14.9 11.4796 14.88 12.1296 14.88 12.7696C14.88 13.0096 14.94 13.1596 15.22 13.1596C15.51 13.1596 15.51 12.9696 15.51 12.7696C15.5 11.8696 15.48 10.9696 15.47 10.0596C15.47 9.79961 15.41 9.49961 15.87 9.34961C15.92 9.62961 16 9.87961 16.01 10.1396C16.02 10.9896 16.01 11.8396 16.01 12.6796C16.01 12.8296 16.07 12.9896 16.11 13.1396C16.14 13.2596 16.26 13.4396 16.22 13.4796C16.13 13.5696 15.97 13.6396 15.84 13.6496C14.83 13.6496 13.81 13.6496 12.8 13.6396C12.28 13.6396 11.76 13.6396 11.24 13.6396C11.12 13.6396 10.97 13.5696 10.9 13.4796C10.86 13.4396 10.97 13.2796 11.01 13.1696C11.06 13.0196 11.13 12.8796 11.14 12.7296C11.16 12.3596 11.14 11.9896 11.17 11.6196C11.17 11.5096 11.29 11.4096 11.36 11.3096C11.46 11.4196 11.64 11.5196 11.65 11.6396C11.69 12.0296 11.65 12.4296 11.67 12.8296C11.67 12.9396 11.74 13.1196 11.82 13.1496C12.05 13.2496 12.26 13.2196 12.24 12.8796C12.21 12.2896 12.2 11.7096 12.17 11.1196C12.17 10.8996 12.17 10.6896 12.46 10.6796C12.76 10.6796 12.77 10.8996 12.77 11.1096C12.77 11.6796 12.75 12.2596 12.73 12.8296C12.73 13.0196 12.73 13.1896 13 13.1696C13.24 13.1596 13.34 13.0696 13.32 12.8196C13.29 12.4896 13.28 12.1596 13.32 11.8396C13.33 11.7296 13.51 11.6296 13.61 11.5196C13.68 11.6296 13.8 11.7396 13.8 11.8596C13.82 12.2696 13.8 12.6796 13.8 13.1196V13.0996Z" fill="black"/>
</g>
<defs>
<clipPath id="clip0_1417_5106">
<rect width="24" height="21" fill="white"/>
</clipPath>
</defs>
</svg>
