<svg width="22" height="22" viewBox="0 0 22 22" fill="none" xmlns="http://www.w3.org/2000/svg">
<g clip-path="url(#clip0_1418_5854)">
<path d="M21.54 12.97C21.45 12.81 21.36 12.65 21.26 12.49C21.09 12.21 20.91 11.93 20.75 11.65C20.53 11.28 20.33 10.89 20.12 10.52C19.85 10.07 19.57 9.63 19.3 9.19C19.23 9.07 19.16 8.95 19.09 8.83C19.01 8.69 18.93 8.55 18.85 8.42C18.81 8.36 18.77 8.31 18.73 8.25C18.68 8.16 18.69 8.08 18.73 7.99C18.94 7.67 19.15 7.36 19.33 7.03C19.55 6.63 19.74 6.21 19.94 5.8C19.95 5.78 19.96 5.75 19.96 5.73C20 5.59 19.98 5.46 19.93 5.33C19.83 5 19.62 4.74 19.45 4.45L18.56 2.88C18.56 2.88 18.51 2.82 18.48 2.8C18.34 2.72 18.17 2.68 18.01 2.68C17.71 2.68 17.42 2.66 17.12 2.66C16.88 2.65 16.63 2.65 16.39 2.65H15.73C15.54 2.64 15.35 2.64 15.17 2.64C14.9 2.64 14.63 2.65 14.35 2.65C14.19 2.65 14.02 2.63 13.85 2.63C13.51 2.64 13.18 2.65 12.85 2.65C12.66 2.65 12.53 2.58 12.45 2.41C12.37 2.28 12.29 2.14 12.2 2.01C12.15 1.91 12.08 1.82 12.03 1.72C11.89 1.45 11.76 1.18 11.57 0.94C11.52 0.87 11.46 0.8 11.43 0.72C11.37 0.51 11.26 0.35 11.11 0.21C10.96 0.08 10.8 0 10.6 0C10.48 0.01 10.37 0.02 10.26 0.02H8.89999C8.69999 0.03 8.49999 0.04 8.28999 0.04C8.14999 0.04 7.99999 0.04 7.84999 0.06C7.81999 0.06 7.77999 0.09 7.74999 0.12C7.69999 0.17 7.65999 0.23 7.60999 0.28C7.40999 0.51 7.22999 0.75 7.07999 1.01C6.83999 1.41 6.59999 1.81 6.36999 2.21C6.14999 2.59 5.92999 2.97 5.71999 3.35C5.43999 3.82 5.16999 4.3 4.88999 4.78C4.84999 4.85 4.80999 4.92 4.75999 4.99C4.67999 5.11 4.55999 5.15 4.41999 5.13C4.22999 5.12 4.03999 5.1 3.84999 5.1C3.69999 5.09 3.54999 5.1 3.39999 5.1C2.98999 5.09 2.58999 5.09 2.18999 5.08C1.99999 5.07 1.84999 5.12 1.72999 5.26C1.64999 5.36 1.56999 5.46 1.49999 5.57C1.18999 6.08 0.889991 6.59 0.579991 7.1C0.399991 7.41 0.229991 7.71 0.0399909 8.02C-0.00667578 8.09333 -0.00334245 8.16667 0.0499909 8.24C0.329991 8.6 0.539991 9.01 0.779991 9.4C1.08999 9.91 1.37999 10.44 1.66999 10.96C1.78999 11.17 1.89999 11.39 2.01999 11.6C2.15999 11.85 2.30999 12.09 2.44999 12.34C2.53999 12.52 2.63999 12.69 2.75999 12.84C2.81999 12.91 2.86999 12.99 2.92999 13.05C2.97999 13.1 2.97999 13.15 2.93999 13.2C2.87999 13.28 2.82999 13.36 2.77999 13.44C2.59999 13.74 2.41999 14.05 2.23999 14.36C2.09999 14.61 1.96999 14.85 1.82999 15.1C1.74999 15.24 1.65999 15.37 1.57999 15.51C1.54999 15.57 1.52999 15.65 1.53999 15.71C1.56999 15.82 1.60999 15.93 1.67999 16.03C1.86999 16.31 2.01999 16.62 2.19999 16.91C2.34999 17.18 2.49999 17.45 2.64999 17.72C2.71999 17.83 2.78999 17.95 2.85999 18.06C2.92999 18.18 2.98999 18.3 3.05999 18.41C3.17999 18.58 3.32999 18.68 3.55999 18.66C3.72999 18.65 3.88999 18.66 4.05999 18.66C5.27999 18.66 6.49999 18.65 7.70999 18.64C8.06999 18.64 8.43999 18.61 8.79999 18.6C8.93999 18.6 9.04999 18.65 9.11999 18.78C9.25999 18.99 9.38999 19.19 9.49999 19.41C9.66999 19.73 9.85999 20.03 10.04 20.34C10.08 20.41 10.11 20.48 10.15 20.55C10.22 20.68 10.29 20.81 10.38 20.93C10.45 21.03 10.53 21.13 10.66 21.16C10.76 21.19 10.86 21.21 10.97 21.21C11.29 21.21 11.62 21.19 11.95 21.19C12.51 21.2 13.07 21.2 13.63 21.21C13.81 21.22 13.96 21.16 14.07 21.03C14.18 20.91 14.27 20.77 14.36 20.63C14.5 20.4 14.64 20.16 14.78 19.92C14.97 19.59 15.18 19.26 15.37 18.93C15.68 18.4 15.99 17.86 16.29 17.33C16.46 17.03 16.64 16.74 16.8 16.44C16.92 16.21 17.11 16.14 17.35 16.16C17.56 16.17 17.76 16.19 17.97 16.19C18.19 16.2 18.4 16.19 18.62 16.19C18.79 16.19 18.96 16.18 19.14 16.18C19.25 16.18 19.37 16.2 19.49 16.2C19.63 16.2 19.76 16.15 19.86 16.05C19.94 15.96 20.02 15.87 20.09 15.77C20.22 15.56 20.34 15.35 20.46 15.14C20.64 14.85 20.82 14.55 21 14.26C21.18 13.97 21.31 13.67 21.51 13.4C21.61 13.27 21.62 13.12 21.53 12.97H21.54ZM5.63999 4.54C5.73999 4.36 5.85999 4.18 5.96999 4C6.16999 3.66 6.37999 3.32 6.57999 2.99C6.69999 2.78 6.80999 2.56 6.94999 2.35C7.17999 1.99 7.35999 1.59 7.56999 1.22C7.66999 1.05 7.74999 0.87 7.84999 0.66C7.89999 0.71 7.93999 0.74 7.95999 0.77C8.04999 0.92 8.11999 1.07 8.19999 1.21C8.38999 1.56 8.56999 1.9 8.76999 2.24C8.89999 2.47 9.04999 2.69 9.19999 2.92C9.20999 2.92 9.20999 2.94 9.21999 2.95C9.30999 3.06 9.30999 3.18 9.22999 3.3C9.09999 3.51 8.96999 3.73 8.83999 3.95C8.60999 4.33 8.37999 4.72 8.14999 5.11C8.07999 5.23 7.99999 5.35 7.92999 5.48C7.86999 5.58 7.87999 5.6 7.98999 5.64C8.03999 5.66 8.08999 5.67 8.14999 5.67C8.29999 5.67 8.45999 5.66 8.60999 5.66H9.30999C9.39999 5.66 9.47999 5.67 9.55999 5.67C9.97999 5.67 10.4 5.66 10.81 5.66C12.11 5.66 13.4 5.66 14.69 5.65C16.2 5.65 17.7 5.64 19.21 5.64H19.43C19.49 5.64 19.54 5.67 19.55 5.73C19.56 5.76 19.55 5.79 19.53 5.81C19.51 5.84 19.48 5.87 19.46 5.9C19.4 5.98 19.34 6.07 19.28 6.16C19.09 6.4 18.94 6.67 18.79 6.93C18.58 7.3 18.36 7.67 18.15 8.03C18.1 8.11 18.05 8.14 17.95 8.14C17.78 8.13 17.6 8.12 17.43 8.12C17.24 8.12 17.05 8.14 16.86 8.14C16.42 8.14 15.97 8.13 15.53 8.13H13.2C12.23 8.13 11.25 8.14 10.28 8.13C9.58999 8.13 8.89999 8.12 8.20999 8.11C7.87999 8.11 7.53999 8.09 7.20999 8.08L5.34999 5.08C5.44999 4.9 5.53999 4.72 5.63999 4.54ZM8.90999 18.04C8.82999 18.09 8.73999 18.1 8.64999 18.1C8.38999 18.1 8.13999 18.12 7.87999 18.12C7.55999 18.12 7.23999 18.1 6.91999 18.1C6.01999 18.1 5.10999 18.1 4.19999 18.1C4.06999 18.1 3.93999 18.11 3.79999 18.11C3.74999 18.11 3.68999 18.1 3.63999 18.08C3.56999 18.05 3.55999 18.02 3.59999 17.95C3.59999 17.93 3.59999 17.92 3.61999 17.91C3.79999 17.71 3.93999 17.47 4.06999 17.24C4.29999 16.86 4.52999 16.49 4.74999 16.11C4.80999 16.02 4.85999 15.93 4.89999 15.83C4.93999 15.76 4.98999 15.73 5.04999 15.72C5.15999 15.7 5.25999 15.69 5.36999 15.69H7.73999C7.84999 15.69 7.86999 15.67 7.84999 15.56C7.82999 15.42 7.78999 15.29 7.70999 15.17C7.56999 14.95 7.41999 14.73 7.28999 14.5C7.05999 14.12 6.84999 13.74 6.61999 13.36C6.43999 13.05 6.23999 12.74 6.05999 12.42L5.33999 11.16C5.10999 10.77 4.87999 10.38 4.64999 9.99C4.30999 9.41 3.96999 8.82 3.62999 8.24C3.32999 7.72 3.02999 7.19 2.71999 6.67C2.57999 6.43 2.41999 6.19 2.26999 5.95C2.19999 5.84 2.17999 5.77 2.19999 5.65C2.24999 5.65 2.29999 5.64 2.34999 5.64C2.62999 5.65 2.90999 5.66 3.19999 5.66C3.58999 5.66 3.97999 5.65 4.35999 5.64C4.48999 5.64 4.60999 5.63 4.72999 5.62C4.83999 5.62 4.92999 5.66 5.00999 5.75C5.10999 5.86 5.19999 5.97 5.26999 6.1C5.48999 6.5 5.71999 6.89 5.93999 7.28C6.07999 7.53 6.20999 7.77 6.33999 8.02C6.50999 8.34 6.67999 8.66 6.84999 8.98C7.02999 9.3 7.21999 9.61 7.39999 9.92C7.52999 10.14 7.66999 10.36 7.78999 10.59C8.00999 10.96 8.22999 11.34 8.43999 11.72C8.70999 12.18 8.97999 12.64 9.24999 13.11C9.45999 13.47 9.67999 13.84 9.88999 14.21C10.04 14.47 10.2 14.74 10.35 15.01C10.39 15.08 10.43 15.16 10.46 15.24L8.90999 18.03V18.04ZM20.8 13.13C20.48 13.12 20.16 13.1 19.85 13.1C19.47 13.09 19.1 13.1 18.72 13.1C18.58 13.1 18.43 13.1 18.29 13.1C18.18 13.09 18.1 13.03 18.04 12.93C17.94 12.78 17.84 12.62 17.75 12.46C17.58 12.17 17.42 11.87 17.26 11.58C17.11 11.32 16.96 11.06 16.8 10.81C16.73 10.7 16.63 10.67 16.51 10.72C16.48 10.74 16.45 10.76 16.44 10.79C16.36 11.05 16.21 11.27 16.09 11.51C15.92 11.81 15.77 12.12 15.6 12.41C15.46 12.66 15.31 12.89 15.17 13.13C14.88 13.58 14.62 14.04 14.36 14.52C14.24 14.74 14.1 14.95 13.97 15.17C13.8 15.46 13.64 15.75 13.47 16.04C13.27 16.38 13.07 16.72 12.86 17.06C12.69 17.35 12.5 17.64 12.34 17.94C12.13 18.36 11.88 18.76 11.63 19.16C11.44 19.47 11.26 19.8 11.09 20.13C11.02 20.27 10.94 20.4 10.82 20.52C10.7 20.43 10.62 20.32 10.55 20.19C10.28 19.72 10.02 19.24 9.74999 18.77C9.66999 18.63 9.56999 18.49 9.48999 18.36C9.39999 18.22 9.39999 18.08 9.48999 17.94C9.69999 17.57 9.90999 17.2 10.12 16.84C10.13 16.81 10.14 16.79 10.16 16.77C10.29 16.63 10.36 16.47 10.44 16.3C10.48 16.23 10.53 16.17 10.58 16.1C10.64 16.01 10.7 15.93 10.76 15.84C10.85 15.71 10.94 15.58 11.03 15.45C11.05 15.41 11.08 15.37 11.1 15.33C11.34 14.89 11.59 14.44 11.84 14C12.02 13.67 12.22 13.34 12.42 13.01C12.59 12.71 12.77 12.41 12.94 12.1C13.16 11.72 13.38 11.34 13.6 10.96C13.8 10.61 14.01 10.26 14.21 9.9C14.32 9.72 14.43 9.53 14.54 9.35C14.68 9.12 14.83 8.9 14.98 8.68C15 8.65 15.01 8.63 15.04 8.61L18.33 8.65C18.41 8.77 18.49 8.89 18.57 9.01C18.77 9.32 18.96 9.63 19.13 9.95C19.27 10.22 19.43 10.47 19.59 10.73C19.74 10.99 19.9 11.24 20.05 11.5C20.26 11.85 20.46 12.21 20.67 12.56C20.77 12.72 20.87 12.87 20.97 13.03C20.98 13.04 20.98 13.05 20.99 13.07C20.93 13.12 20.87 13.13 20.81 13.13H20.8Z" fill="#7F3F98"/>
</g>
<defs>
<clipPath id="clip0_1418_5854">
<rect width="21.6" height="21.21" fill="white"/>
</clipPath>
</defs>
</svg>
