<svg width="24" height="24" viewBox="0 0 24 24" fill="none" xmlns="http://www.w3.org/2000/svg">
<g clip-path="url(#clip0_1417_5124)">
<path d="M16.9399 8.39992C16.8199 8.50992 16.7499 8.56992 16.6799 8.62992C15.5799 9.72992 14.4799 10.8499 13.3599 11.9299C13.1299 12.1499 12.7999 12.3199 12.4899 12.3899C12.1299 12.4699 11.8299 12.2399 11.6799 11.8999C11.5199 11.5499 11.5399 11.1999 11.7799 10.8999C11.9099 10.7399 12.0699 10.6099 12.2099 10.4599C14.3899 8.27992 16.5699 6.09992 18.7399 3.92992C19.3899 3.27992 20.1399 3.42992 20.3899 4.25992C20.4499 4.45992 20.3799 4.73992 20.2799 4.93992C20.1799 5.13992 19.9899 5.29992 19.8199 5.45992C18.8599 6.32992 18.6799 7.40992 18.9499 8.60992C19.1299 9.38992 19.4199 10.1599 19.5499 10.9499C20.1799 14.6999 17.9999 18.3199 14.4099 19.5699C12.9199 20.0899 11.4199 20.1799 9.88992 19.7899C9.01992 19.5599 8.69992 18.6999 9.31992 18.1599C9.52992 17.9699 9.91992 17.8799 10.2199 17.9099C11.1699 18.0099 12.1199 18.1499 13.0799 17.9699C15.8899 17.4099 17.8999 14.8799 17.7499 12.0199C17.7199 11.3699 17.5499 10.7299 17.3999 10.0899C17.2799 9.54992 17.0999 9.01992 16.9299 8.40992L16.9399 8.39992Z" fill="black"/>
<path d="M5.81999 12.2103C5.95999 12.8603 6.04999 13.5203 6.24999 14.1603C6.62999 15.4003 6.91999 16.6503 6.56999 17.9503C6.27999 19.0503 5.61999 19.9203 4.71999 20.5803C4.12999 21.0103 3.51999 20.8103 3.28999 20.1203C3.21999 19.9103 3.28999 19.6203 3.37999 19.4003C3.42999 19.2503 3.58999 19.1203 3.72999 19.0003C4.89999 18.0203 4.98999 16.7803 4.64999 15.4103C4.42999 14.5503 4.14999 13.7003 4.04999 12.8203C3.80999 10.7203 4.40999 8.81034 5.77999 7.22034C7.88999 4.75034 10.59 3.86034 13.78 4.56034C14.5 4.72034 14.83 5.27034 14.61 5.85034C14.44 6.30034 14.1 6.51034 13.62 6.45034C13.01 6.38034 12.4 6.24034 11.79 6.25034C8.40999 6.29034 5.93999 8.81034 5.82999 12.2103H5.81999Z" fill="black"/>
</g>
<defs>
<clipPath id="clip0_1417_5124">
<rect width="24" height="24" fill="white"/>
</clipPath>
</defs>
</svg>
