<svg width="24" height="24" viewBox="0 0 24 24" fill="none" xmlns="http://www.w3.org/2000/svg">
<g clip-path="url(#clip0_1417_5132)">
<path d="M5.76998 12.6701C5.15998 13.3301 4.57998 14.0301 3.92998 14.6501C3.43998 15.1101 2.76998 14.8901 2.61998 14.2601C2.56998 14.0501 2.61998 13.7401 2.75998 13.5901C3.32998 12.9601 3.93998 12.3801 4.54998 11.7801C4.60998 11.7201 4.79998 11.6801 4.81998 11.7101C5.09998 12.0501 5.30998 11.8601 5.53998 11.6501C5.61998 11.5801 5.71998 11.5301 5.74998 11.5101C5.56998 10.9901 5.33998 10.5201 5.25998 10.0201C5.08998 8.98012 5.51998 8.15012 6.36998 7.55012C6.49998 7.45012 6.63998 7.36012 6.77998 7.28012C7.01998 7.15012 7.07998 6.97012 7.03998 6.70012C6.93998 5.95012 7.13998 5.30012 7.80998 4.89012C8.04998 4.74012 8.36998 4.64012 8.64998 4.64012C12.2 4.62012 15.74 4.62012 19.29 4.62012C19.57 4.62012 19.88 4.64012 20.13 4.74012C20.75 4.98012 21.09 5.45012 21.1 6.12012C21.11 6.75012 21.11 7.38012 21.11 8.01012C21.11 8.33012 21 8.50012 20.62 8.48012C20.05 8.44012 19.47 8.48012 18.9 8.46012C18.61 8.46012 18.5 8.52012 18.51 8.85012C18.54 11.8801 18.56 14.9001 18.56 17.9301C18.56 18.8701 18.11 19.4701 17.31 19.6801C17.15 19.7201 16.99 19.7301 16.82 19.7301C13.37 19.7301 9.91998 19.7301 6.46998 19.7301C5.33998 19.7301 4.52998 18.9801 4.42998 17.8501C4.38998 17.3601 4.38998 16.8701 4.37998 16.3701C4.37998 16.0401 4.54998 15.9001 4.86998 15.9001C5.45998 15.9001 6.04998 15.9001 6.63998 15.9101C6.95998 15.9201 7.06998 15.8001 7.05998 15.4801C7.03998 14.5101 7.03998 13.5401 7.05998 12.5701C7.06998 12.1101 6.67998 12.0801 6.43998 11.9101C6.15998 11.7101 5.64998 11.9101 5.60998 12.2601C5.58998 12.4201 5.75998 12.6001 5.83998 12.7701C5.81998 12.7401 5.78998 12.7101 5.76998 12.6801V12.6701ZM18.41 5.10012C18.08 5.12012 17.85 5.14012 17.62 5.14012C14.7 5.14012 11.79 5.15012 8.86998 5.15012C7.84998 5.15012 7.55998 5.44012 7.54998 6.46012C7.54998 6.87012 7.61998 7.05012 8.07998 7.09012C9.31998 7.20012 10.37 8.28012 10.44 9.44012C10.53 10.7401 9.70998 11.9101 8.47998 12.2101C8.18998 12.2801 7.88998 12.2801 7.55998 12.3201C7.55998 13.3501 7.57998 14.3701 7.54998 15.3901C7.52998 15.8201 7.65998 15.9101 8.06998 15.9101C10.49 15.8901 12.92 15.9001 15.34 15.9001C15.8 15.9001 15.93 16.0201 15.93 16.4801C15.93 17.0401 15.93 17.6001 15.93 18.1601C15.93 18.8001 16.27 19.1701 16.84 19.2201C17.46 19.2701 17.92 18.9501 18.01 18.3301C18.06 17.9801 18.03 17.6201 18.03 17.2701C18.03 13.9401 18.02 10.6201 18.01 7.29012C18.01 6.57012 17.97 5.84012 18.41 5.11012V5.10012ZM4.92998 16.4601C4.92998 16.9601 4.93998 17.4101 4.92998 17.8601C4.91998 18.2501 5.07998 18.5401 5.33998 18.8001C5.76998 19.2401 6.30998 19.2301 6.86998 19.2301C9.75998 19.2301 12.64 19.2301 15.53 19.2201C15.6 19.2201 15.67 19.1801 15.76 19.1501C15.18 18.2901 15.5 17.3501 15.43 16.4601H4.92998ZM7.76998 11.8401C9.02998 11.8401 9.97998 10.9101 9.98998 9.65012C9.98998 8.55012 9.03998 7.62012 7.94998 7.55012C6.50998 7.46012 5.67998 8.71012 5.67998 9.68012C5.67998 10.8101 6.68998 11.8401 7.76998 11.8401ZM20.65 6.91012C20.65 6.69012 20.65 6.47012 20.65 6.25012C20.65 5.58012 20.24 5.13012 19.66 5.14012C18.91 5.15012 18.5 5.54012 18.49 6.26012C18.49 6.70012 18.51 7.14012 18.49 7.57012C18.47 7.87012 18.6 7.95012 18.87 7.95012C19.35 7.95012 19.83 7.94012 20.3 7.95012C20.61 7.95012 20.71 7.83012 20.67 7.53012C20.64 7.33012 20.67 7.12012 20.67 6.92012L20.65 6.91012ZM4.71998 12.2001C4.71998 12.2001 4.64998 12.2301 4.61998 12.2601C4.11998 12.7601 3.61998 13.2701 3.11998 13.7801C2.94998 13.9501 2.89998 14.1001 3.10998 14.3001C3.29998 14.4901 3.45998 14.5401 3.65998 14.3401C4.05998 13.9501 4.46998 13.5601 4.86998 13.1701C5.32998 12.7201 5.29998 12.5601 4.71998 12.2101V12.2001Z" fill="black"/>
<path d="M9.25005 6.55988C9.11005 6.11988 9.28005 6.00988 9.66005 6.00988C11.9201 6.00988 14.1801 6.00988 16.4401 6.00988C16.5601 6.00988 16.7001 5.98988 16.8101 6.02988C16.9101 6.07988 17.0401 6.19988 17.0401 6.28988C17.0401 6.37988 16.9101 6.47988 16.8101 6.54988C16.7701 6.57988 16.6801 6.56988 16.6101 6.56988C14.2301 6.56988 11.8401 6.56988 9.46005 6.56988C9.39005 6.56988 9.33005 6.56988 9.25005 6.54988V6.55988Z" fill="black"/>
<path d="M17.06 14.4902C17.14 14.7902 17 14.9102 16.76 14.9402C16.64 14.9602 16.51 14.9602 16.39 14.9602C13.88 14.9602 11.38 14.9602 8.87001 14.9802C8.52001 14.9802 8.45001 14.8202 8.50001 14.4902H17.06Z" fill="black"/>
<path d="M9.22993 12.8103C9.48993 12.7903 9.71993 12.7603 9.94993 12.7603C12.1199 12.7603 14.2999 12.7503 16.4699 12.7603C16.6799 12.7603 17.0699 12.9103 17.0599 12.9703C17.0399 13.3603 16.6899 13.2403 16.4599 13.2503C14.2199 13.2603 11.9799 13.2703 9.73993 13.2603C9.48993 13.2603 9.14993 13.3203 9.22993 12.8103Z" fill="black"/>
<path d="M13.82 11.5898C12.92 11.5898 12.01 11.5898 11.11 11.5898C10.97 11.5898 10.83 11.5898 10.71 11.5498C10.63 11.5198 10.55 11.4098 10.54 11.3198C10.54 11.2698 10.63 11.1598 10.7 11.1398C10.83 11.0998 10.97 11.0898 11.1 11.0898C12.92 11.0898 14.74 11.0898 16.56 11.0898C16.59 11.0898 16.62 11.0898 16.64 11.0898C16.79 11.1698 16.94 11.2398 17.09 11.3198C16.94 11.3998 16.8 11.5598 16.65 11.5598C15.71 11.5798 14.76 11.5698 13.82 11.5698V11.5898Z" fill="black"/>
<path d="M13.8401 8.22C12.9201 8.22 12.0001 8.22 11.0901 8.22C10.9101 8.22 10.6101 8.33 10.6201 8.01C10.6201 7.91 10.9401 7.75 11.1201 7.74C11.9501 7.71 12.7901 7.72 13.6301 7.72C14.5701 7.72 15.5201 7.72 16.4601 7.72C16.6001 7.72 16.7501 7.7 16.8601 7.76C16.9601 7.81 17.0101 7.95 17.0801 8.05C16.9901 8.1 16.8901 8.2 16.8001 8.2C15.8101 8.21 14.8301 8.2 13.8401 8.2V8.22Z" fill="black"/>
<path d="M13.99 9.88993C13.16 9.88993 12.32 9.89993 11.49 9.87993C11.31 9.87993 11.13 9.73993 10.95 9.66993C11.14 9.57993 11.34 9.40993 11.54 9.39993C12.3 9.36993 13.07 9.38993 13.83 9.37993C14.66 9.37993 15.5 9.37993 16.33 9.37993C16.48 9.37993 16.64 9.35993 16.78 9.40993C16.9 9.44993 16.99 9.56993 17.09 9.65993C16.98 9.72993 16.88 9.86993 16.77 9.86993C15.84 9.88993 14.91 9.86993 13.98 9.86993L13.99 9.88993Z" fill="black"/>
</g>
<defs>
<clipPath id="clip0_1417_5132">
<rect width="24" height="24" fill="white"/>
</clipPath>
</defs>
</svg>
