<svg width="18" height="16" viewBox="0 0 18 16" fill="none" xmlns="http://www.w3.org/2000/svg">
<g clip-path="url(#clip0_1417_5128)">
<path d="M15.6901 0.350078V7.10008C15.4801 7.10008 15.3001 7.10008 15.1101 7.10008C13.3701 7.10008 11.6201 7.15008 9.88008 7.09008C8.29008 7.03008 7.18008 8.34008 7.22008 9.75008C7.27008 11.5301 7.25008 13.3101 7.26008 15.0901C7.26008 15.6301 7.26008 15.6101 6.75008 15.5301C3.06008 14.9001 0.330078 11.7101 0.330078 7.74008C0.330078 4.00008 3.53008 0.340078 7.60008 0.330078C10.2401 0.330078 12.8901 0.330078 15.5301 0.330078C15.5701 0.330078 15.6101 0.340078 15.6901 0.350078Z" fill="black"/>
<path d="M8.87011 15.5003C8.88011 15.2103 8.91011 14.9203 8.91011 14.6303C8.91011 13.2003 8.94011 11.7703 8.89011 10.3503C8.85011 9.32027 9.61011 8.49027 10.7101 8.54027C12.1101 8.61027 13.5201 8.57027 14.9201 8.57027C15.1401 8.57027 15.3701 8.54027 15.5901 8.53027C15.6101 8.56027 15.6401 8.60027 15.6601 8.63027C13.4201 10.9403 11.1901 13.2503 8.95011 15.5603C8.92011 15.5403 8.89011 15.5203 8.86011 15.5103L8.87011 15.5003Z" fill="black"/>
</g>
<defs>
<clipPath id="clip0_1417_5128">
<rect width="18" height="16" fill="white"/>
</clipPath>
</defs>
</svg>
