<svg width="33" height="24" viewBox="0 0 33 24" fill="none" xmlns="http://www.w3.org/2000/svg">
<g clip-path="url(#clip0_1409_5077)">
<path d="M22.5801 3.99031C22.5801 4.18031 22.6001 4.38031 22.6001 4.57031C22.6001 4.81031 22.6601 4.98031 22.9301 5.06031C23.2801 5.17031 23.3301 5.38031 23.1201 5.69031C22.6201 6.40031 22.1401 7.12031 21.6301 7.87031C21.9401 7.91031 22.1901 7.90031 22.4001 7.98031C22.8101 8.13031 22.8701 8.41031 22.5601 8.70031C21.8201 9.39031 21.3201 10.2503 20.7901 11.0903C20.4201 11.6703 20.4701 11.7703 21.1201 11.9803C21.6601 12.1603 22.1901 12.3503 22.7001 12.5903C23.0901 12.7703 23.2601 13.1103 23.1301 13.5503C22.9801 14.0503 22.9101 14.5903 22.6701 15.0403C22.2701 15.7903 21.6201 16.0003 20.8001 15.7703C19.9001 15.5103 18.9801 15.3003 18.1001 14.9703C17.5901 14.7803 17.1701 14.3903 16.6901 14.1103C16.4801 13.9903 16.2401 13.9103 16.0101 13.8603C15.3501 13.7103 14.6901 13.5903 14.0301 13.4603C13.9001 13.4403 13.7601 13.4103 13.6301 13.4403C13.1801 13.5603 12.7301 13.7303 12.2701 13.8203C11.5701 13.9503 11.0501 14.3003 10.6501 14.8703C10.0901 15.6403 9.76009 15.7103 8.96009 15.1803C8.10009 14.6103 7.64009 13.7403 7.39009 12.7703C7.35009 12.6203 7.54009 12.3403 7.70009 12.2103C8.04009 11.9503 8.42009 11.7503 8.80009 11.5403C9.20009 11.3203 9.33009 11.0103 9.23009 10.5803C9.18009 10.3403 9.17009 10.0903 9.13009 9.79031C8.75009 9.93031 8.40009 10.0503 8.04009 10.1903C7.71009 10.3203 7.48009 10.2303 7.34009 9.87031C7.80009 9.43031 8.39009 9.30031 8.97009 9.26031C8.97009 8.65031 8.96009 8.06031 8.97009 7.48031C8.99009 6.81031 9.00009 6.13031 9.08009 5.46031C9.14009 4.99031 9.42009 4.63031 9.86009 4.40031C9.96009 4.35031 10.0301 4.20031 10.0601 4.09031C10.1201 3.86031 10.1201 3.63031 10.1701 3.40031C10.2001 3.27031 10.2301 3.12031 10.3101 3.01031C10.7301 2.45031 11.4301 2.20031 11.8401 1.62031C11.8701 1.57031 12.0001 1.57031 12.0801 1.57031C12.6701 1.59031 13.7601 2.44031 13.9101 3.02031C13.9901 3.32031 14.1101 3.35031 14.3801 3.25031C16.3501 2.58031 18.0801 3.01031 19.6101 4.37031C19.7001 4.45031 19.7901 4.54031 19.9001 4.64031C20.2001 4.39031 20.4701 4.14031 20.7601 3.91031C20.9301 3.78031 21.0901 3.73031 21.3101 3.90031C21.4601 4.01031 21.7301 3.95031 21.9501 3.96031C22.1701 3.97031 22.3901 3.98031 22.6101 3.98031H22.6001L22.5801 3.99031ZM10.0001 4.97031C9.95009 4.95031 9.90009 4.92031 9.85009 4.90031C9.78009 5.01031 9.67009 5.11031 9.66009 5.22031C9.58009 5.78031 9.47009 6.34031 9.48009 6.90031C9.52009 8.11031 9.60009 9.33031 9.73009 10.5403C9.80009 11.1903 9.60009 11.6403 9.07009 11.9803C8.78009 12.1603 8.49009 12.3603 8.18009 12.5203C7.91009 12.6603 7.87009 12.8403 7.99009 13.1003C8.28009 13.7703 8.67009 14.3603 9.29009 14.7903C9.74009 15.1003 9.85009 15.0903 10.1801 14.6703C10.8001 13.9003 11.5301 13.4003 12.5601 13.2303C14.2501 12.9603 14.9301 12.1703 15.0201 10.4603C15.1001 8.98031 15.0501 7.50031 15.0601 6.02031C15.0601 5.96031 15.0201 5.90031 15.0001 5.81031C14.5701 5.96031 14.4501 6.32031 14.4301 6.67031C14.3901 7.27031 14.4101 7.88031 14.4301 8.49031C14.4301 8.74031 14.5301 9.03031 14.1901 9.09031C14.1201 9.10031 13.9301 8.74031 13.9001 8.54031C13.8201 7.86031 13.8101 7.16031 13.7401 6.48031C13.6201 5.29031 13.4801 4.09031 13.3301 2.90031C13.3201 2.80031 13.2201 2.71031 13.1601 2.62031C13.0801 2.70031 12.9501 2.77031 12.9301 2.86031C12.8701 3.18031 12.8201 3.51031 12.8201 3.84031C12.8101 5.21031 12.8201 6.57031 12.8201 7.97031C12.4801 8.06031 12.4501 8.05031 12.3901 7.66031C12.3601 7.47031 12.3401 7.28031 12.3401 7.08031C12.3401 5.66031 12.3401 4.23031 12.3201 2.81031C12.3201 2.56031 12.1701 2.32031 12.0901 2.07031C11.9501 2.32031 11.7001 2.56031 11.6801 2.81031C11.6001 4.13031 11.5801 5.46031 11.5501 6.79031C11.5401 7.28031 11.5501 7.78031 11.5501 8.27031C11.0701 8.35031 11.0301 8.31031 11.0301 7.81031C11.0401 6.48031 11.0601 5.16031 11.0701 3.83031C11.0701 3.55031 11.0301 3.28031 11.0101 3.00031C10.9601 3.00031 10.9201 2.98031 10.8701 2.97031C10.8101 3.07031 10.7001 3.17031 10.6901 3.28031C10.6201 3.93031 10.5401 4.57031 10.5301 5.22031C10.5201 6.23031 10.5601 7.24031 10.5801 8.25031C10.5801 8.44031 10.6501 8.66031 10.3401 8.68031C10.0601 8.69031 10.0301 8.52031 10.0301 8.30031C10.0301 8.11031 10.0301 7.91031 10.0301 7.72031C10.0301 6.81031 10.0301 5.90031 10.0301 4.99031L10.0001 4.97031ZM20.2701 8.65031C20.0701 8.61031 19.8801 8.56031 19.6801 8.53031C19.3001 8.47031 18.9201 8.42031 18.5401 8.38031C18.2601 8.35031 17.9801 8.32031 17.7001 8.33031C17.5801 8.33031 17.4101 8.38031 17.3501 8.46031C17.1001 8.84031 16.8701 9.24031 16.6401 9.63031C16.1801 10.4103 16.3201 11.2703 16.3201 12.1003C16.3201 12.9103 16.6401 13.5903 17.3501 14.0203C17.7601 14.2703 18.1901 14.5003 18.6501 14.6603C19.3501 14.9003 20.0801 15.0803 20.8001 15.2603C21.7301 15.5003 22.1301 15.2603 22.4301 14.3603C22.5001 14.1403 22.5601 13.9103 22.6201 13.6803C22.7301 13.2803 22.6101 13.0103 22.2001 12.8803C21.6801 12.7103 21.1401 12.5503 20.6301 12.3403C19.9701 12.0703 19.8401 11.7503 20.2101 11.1403C20.7101 10.3203 21.2901 9.54031 21.8301 8.74031C21.9101 8.62031 21.9901 8.50031 22.0701 8.39031C21.9001 8.35031 21.7601 8.36031 21.6901 8.43031C21.4001 8.70031 21.1001 8.97031 20.8501 9.28031C20.6701 9.51031 20.5201 9.63031 20.2001 9.57031C19.4801 9.42031 18.8301 9.58031 18.2901 10.1103C18.2201 10.1803 18.1201 10.2303 18.0301 10.2903C18.0001 10.2703 17.9601 10.2503 17.9301 10.2403C17.9901 10.0503 18.0101 9.80031 18.1301 9.67031C18.5601 9.23031 19.0901 8.93031 19.7201 9.00031C20.3201 9.07031 20.6501 8.74031 20.9301 8.31031C21.4801 7.47031 22.0101 6.61031 22.5401 5.76031C22.6101 5.65031 22.6301 5.51031 22.6801 5.38031C22.6501 5.36031 22.6201 5.33031 22.5901 5.31031C22.4801 5.37031 22.3401 5.41031 22.2501 5.49031C21.6501 6.10031 21.0301 6.69031 20.4801 7.34031C20.1801 7.69031 19.6601 8.08031 20.2601 8.67031L20.2701 8.65031ZM16.0901 13.3903C16.0301 13.1603 16.0101 13.0403 15.9801 12.9203C15.4401 11.3103 15.8001 9.86031 16.7301 8.49031C17.1201 7.91031 17.4801 7.31031 17.8301 6.70031C18.2501 5.98031 18.5401 5.12031 19.7301 5.30031C19.6301 5.11031 19.6001 4.99031 19.5201 4.91031C18.0101 3.49031 16.1801 3.13031 14.3001 3.80031C14.1801 3.84031 14.0101 3.99031 14.0101 4.08031C14.0101 4.59031 14.0601 5.11031 14.0901 5.67031C14.3201 5.56031 14.4701 5.48031 14.6401 5.41031C15.1101 5.21031 15.4601 5.37031 15.5901 5.86031C15.6401 6.05031 15.6301 6.27031 15.6401 6.47031C15.6401 6.94031 15.6401 7.41031 15.6401 7.87031C15.6701 9.64031 15.7301 11.4103 14.5701 12.9303C14.5401 12.9703 14.5401 13.0303 14.5001 13.1703C15.0201 13.2303 15.5101 13.2903 16.0901 13.3503V13.3903ZM19.3101 8.00031C19.3701 8.04031 19.4401 8.09031 19.5001 8.13031C19.5601 8.01031 19.5901 7.87031 19.6701 7.77031C20.3201 6.97031 20.9801 6.18031 21.6301 5.37031C21.8701 5.07031 22.0701 4.74031 22.2901 4.43031C22.2501 4.38031 22.2001 4.34031 22.1601 4.29031C22.0101 4.36031 21.8401 4.40031 21.7201 4.50031C20.6801 5.36031 20.0201 6.52031 19.3201 7.64031C19.2701 7.73031 19.3201 7.88031 19.3201 8.00031H19.3101ZM18.9601 7.15031C18.9601 7.15031 19.0101 7.17031 19.0301 7.19031C19.7301 6.24031 20.4201 5.30031 21.1201 4.35031C21.1101 4.32031 21.1001 4.29031 21.0801 4.25031C20.9301 4.31031 20.7201 4.33031 20.6301 4.44031C20.2701 4.90031 19.9201 5.38031 19.6101 5.88031C19.3601 6.28031 19.1701 6.72031 18.9601 7.14031V7.15031ZM19.1301 5.68031C18.4001 6.30031 18.1901 7.16031 17.7601 7.94031C18.1701 7.91031 19.1301 6.26031 19.1301 5.68031Z" fill="black"/>
<path d="M16.8999 19.4197C17.3299 18.7797 17.6999 18.1997 18.0899 17.6297C18.1699 17.5097 18.2999 17.3997 18.4299 17.3397C18.6699 17.2197 18.8299 17.2897 18.8299 17.5897C18.8299 18.7397 18.8299 19.8797 18.8499 21.0297C18.8499 21.3497 18.6199 21.3197 18.4099 21.3197C18.1899 21.3197 18.0399 21.2997 18.0499 21.0097C18.0699 20.2997 18.0499 19.5797 18.0499 18.8197C17.9399 18.9297 17.8199 19.0297 17.7299 19.1597C17.6199 19.3197 17.5199 19.4797 17.4199 19.6497C16.9699 20.4397 16.7999 20.4597 16.2399 19.6297C16.0399 19.3397 15.8699 19.0397 15.6899 18.7397L15.5899 18.7697C15.5899 18.9297 15.5899 19.0797 15.5899 19.2397C15.6099 19.8297 15.6199 20.4297 15.6399 21.0197C15.6499 21.3097 15.4599 21.3097 15.2499 21.3197C15.0399 21.3197 14.8299 21.2997 14.8399 21.0397C14.8399 19.8697 14.8699 18.6897 14.8899 17.5197C14.8899 17.4397 15.0099 17.2697 15.0399 17.2797C15.1999 17.3197 15.4099 17.3597 15.4999 17.4797C15.8799 17.9997 16.2299 18.5597 16.5899 19.0897C16.6599 19.1997 16.7599 19.2797 16.8799 19.4097L16.8999 19.4197Z" fill="black"/>
<path d="M0.319927 19.2899C0.319927 18.0999 1.10993 17.2499 2.18993 17.2699C3.20993 17.2799 4.04993 18.2199 4.04993 19.3199C4.04993 20.5599 3.25993 21.4199 2.12993 21.4099C1.02993 21.4099 0.309927 20.5599 0.319927 19.2899ZM2.16993 17.9199C1.66993 17.9199 1.17993 18.3899 1.02993 19.0099C0.789927 20.0099 1.53993 20.8699 2.46993 20.6499C3.03993 20.5199 3.19993 20.0399 3.28993 19.5599C3.44993 18.7799 2.84993 17.9199 2.16993 17.9099V17.9199Z" fill="black"/>
<path d="M5.47994 22.5604H4.68994C4.68994 22.0304 4.68994 21.5204 4.68994 21.0204C4.68994 20.3204 4.70994 19.6104 4.73994 18.9104C4.73994 18.7904 4.80994 18.5904 4.87994 18.5804C4.99994 18.5504 5.18994 18.6004 5.26994 18.6904C5.40994 18.8404 5.47994 18.8904 5.66994 18.7604C6.33994 18.2904 6.98994 18.4404 7.41994 19.1404C7.87994 19.9004 7.59994 20.9804 6.81994 21.2804C6.56994 21.3804 6.23994 21.3204 5.94994 21.2804C5.79994 21.2604 5.64994 21.1504 5.47994 21.0704V22.5604ZM6.92994 19.9504C6.92994 19.5104 6.54994 19.0504 6.18994 19.0304C5.81994 19.0204 5.46994 19.4804 5.46994 19.9504C5.46994 20.3904 5.84994 20.8104 6.20994 20.7904C6.55994 20.7704 6.91994 20.3404 6.91994 19.9404L6.92994 19.9504Z" fill="black"/>
<path d="M8.90998 20.1096C9.02998 20.7596 9.41998 20.9596 9.92998 20.7196C9.96998 20.6996 9.99998 20.6596 10.04 20.6596C10.24 20.6796 10.44 20.6996 10.64 20.7296C10.53 20.8796 10.46 21.0896 10.32 21.1796C9.76998 21.5096 9.20998 21.5196 8.69998 21.0996C8.20998 20.6996 8.01998 20.1596 8.17998 19.5396C8.33998 18.9396 8.72998 18.5696 9.36998 18.4696C10.12 18.3596 10.87 19.0496 10.84 19.7996C10.83 20.0396 10.72 20.1496 10.48 20.1396C10.13 20.1196 9.78998 20.1096 9.43998 20.0996C9.27998 20.0996 9.10998 20.0996 8.91998 20.0996L8.90998 20.1096ZM10.12 19.5896C9.97998 19.2296 9.78998 18.9696 9.45998 19.0196C9.22998 19.0596 8.94998 19.1996 8.99998 19.5896H10.12Z" fill="black"/>
<path d="M26.9901 18.6098C26.9901 19.1498 27.0101 19.6598 26.9901 20.1698C26.9701 20.5198 27.1201 20.7298 27.4501 20.7898C27.7401 20.8398 28.0701 20.5498 28.0801 20.2098C28.1001 19.7598 28.0801 19.2998 28.0801 18.8498C28.0801 18.7798 28.0801 18.7198 28.0801 18.6098C28.2201 18.5798 28.3501 18.5498 28.4801 18.5298C28.7801 18.4998 28.9401 18.5898 28.9201 18.9398C28.8801 19.5698 28.9101 20.2098 28.8801 20.8398C28.8801 21.0098 28.7601 21.1798 28.6901 21.3398C28.5301 21.2598 28.3601 21.1798 28.2001 21.1098C28.2001 21.0698 28.2001 21.0298 28.2001 20.9998C28.0501 21.0798 27.9001 21.1698 27.7501 21.2498C27.0701 21.5998 26.4201 21.3298 26.3101 20.5898C26.2201 19.9998 26.2001 19.3798 26.2701 18.7798C26.3101 18.3698 26.6901 18.5698 26.9901 18.6098Z" fill="black"/>
<path d="M19.7901 19.3097C19.9501 18.6597 20.4601 18.3897 21.0601 18.4697C21.6001 18.5397 22.0201 18.9297 22.0701 19.4697C22.1101 19.9897 22.1101 20.5197 22.1101 21.0397C22.1101 21.2597 22.0201 21.4697 21.7601 21.3097C21.4501 21.1097 21.1901 21.2097 20.9101 21.3397C20.2901 21.6197 19.5401 21.0897 19.6001 20.4397C19.6501 19.9397 20.2501 19.5397 20.8501 19.6097C21.0201 19.6297 21.2001 19.6497 21.3801 19.6697C21.3201 19.0597 20.9701 18.8797 20.4701 19.1297C20.2601 19.2297 20.0101 19.2497 19.7801 19.2997L19.7901 19.3097ZM20.8901 19.9697C20.6601 20.1797 20.4901 20.3297 20.3301 20.4897C20.4701 20.6297 20.6701 20.9097 20.7501 20.8797C20.9901 20.7897 21.1901 20.5797 21.4101 20.4197C21.2701 20.2897 21.1201 20.1697 20.9001 19.9697H20.8901Z" fill="black"/>
<path d="M11.41 19.9404C11.41 19.5904 11.39 19.2504 11.41 18.9004C11.41 18.7804 11.5 18.6104 11.6 18.5604C11.67 18.5204 11.88 18.6104 11.93 18.7004C12.09 18.9504 12.19 18.8804 12.38 18.7204C13.02 18.1904 13.89 18.5404 13.98 19.3704C14.04 19.9204 14.02 20.4704 14.04 21.0204C14.05 21.3404 13.84 21.3704 13.6 21.3804C13.35 21.3804 13.31 21.2404 13.31 21.0304C13.31 20.6204 13.31 20.2004 13.31 19.7904C13.31 19.3804 13.05 19.0504 12.74 19.0504C12.48 19.0504 12.16 19.4104 12.14 19.7504C12.12 20.1204 12.11 20.5004 12.16 20.8704C12.21 21.2504 12.06 21.3504 11.71 21.3504C11.31 21.3504 11.3 21.1404 11.34 20.8404C11.38 20.5404 11.38 20.2304 11.4 19.9304C11.4 19.9304 11.4 19.9304 11.39 19.9304L11.41 19.9404Z" fill="black"/>
<path d="M22.8899 19.9299C22.8899 19.5999 22.8899 19.2699 22.8899 18.9299C22.8899 18.5599 23.0199 18.4499 23.3299 18.6199C23.5999 18.7699 23.8099 18.7399 24.0599 18.5899C24.5799 18.2899 25.2599 18.4999 25.3699 19.0599C25.5099 19.7299 25.4999 20.4299 25.5099 21.1099C25.5099 21.1799 25.1899 21.2699 25.0199 21.3099C24.8199 21.3499 24.7199 21.2499 24.7299 21.0299C24.7499 20.5699 24.7499 20.1199 24.7399 19.6599C24.7399 19.2899 24.4999 19.0199 24.1999 19.0699C23.8799 19.1199 23.6399 19.2899 23.6499 19.6699C23.6499 20.1099 23.6499 20.5499 23.6499 20.9999C23.6499 21.2699 23.5199 21.3199 23.2899 21.3199C23.0499 21.3199 22.8799 21.2799 22.8799 20.9899C22.8799 20.6299 22.8799 20.2699 22.8799 19.9099L22.8899 19.9299Z" fill="black"/>
<path d="M30.68 18.4004C30.93 18.5104 31.2 18.6004 31.44 18.7504C31.54 18.8104 31.56 19.0004 31.62 19.1304C31.5 19.1704 31.37 19.2604 31.25 19.2404C31.09 19.2104 30.94 19.0804 30.78 19.0404C30.66 19.0104 30.5 19.0204 30.4 19.0804C30.32 19.1304 30.25 19.3004 30.27 19.3904C30.29 19.4704 30.43 19.5404 30.53 19.5804C30.75 19.6704 30.97 19.7404 31.19 19.8204C31.51 19.9404 31.68 20.1704 31.7 20.5104C31.71 20.8704 31.5399 21.1004 31.2099 21.2504C30.6099 21.5204 29.99 21.4404 29.57 20.9804C29.5 20.9004 29.49 20.7504 29.45 20.6404C29.61 20.6104 29.78 20.5204 29.93 20.5504C30.11 20.5904 30.26 20.7504 30.43 20.8304C30.68 20.9504 30.8799 20.8604 30.9599 20.6104C31.0399 20.3604 30.86 20.2804 30.66 20.2204C30.4 20.1404 30.1199 20.0604 29.8899 19.9204C29.3199 19.5804 29.34 18.9604 29.93 18.6404C30.14 18.5204 30.4 18.4904 30.68 18.4004Z" fill="black"/>
<path d="M20.01 0.479951C19.97 0.609951 19.96 0.689951 19.93 0.759951C19.56 1.44995 19.19 2.14995 18.82 2.83995C18.68 3.09995 18.47 3.15995 18.25 2.94995C18.18 2.87995 18.13 2.68995 18.17 2.60995C18.53 1.89995 18.92 1.19995 19.29 0.489951C19.43 0.229951 19.62 0.229951 19.85 0.319951C19.92 0.349951 19.97 0.429951 20.02 0.479951H20.01Z" fill="black"/>
<path d="M22.1101 9.90039C22.7101 10.1904 23.3001 10.4704 23.8601 10.7704C23.9301 10.8004 23.9801 11.0304 23.9301 11.0804C23.8501 11.1804 23.6501 11.3104 23.5701 11.2804C22.9501 11.0304 22.3401 10.7404 21.7401 10.4404C21.6801 10.4104 21.6401 10.2004 21.6701 10.1604C21.7801 10.0504 21.9301 10.0004 22.1001 9.91039L22.1101 9.90039Z" fill="black"/>
<path d="M13.9299 0.370341C14.3399 0.230341 14.5899 0.26034 14.6699 0.65034C14.7699 1.11034 14.8799 1.56034 14.9699 2.02034C14.9899 2.11034 14.9999 2.23034 14.9699 2.30034C14.8999 2.42034 14.7899 2.56034 14.6799 2.59034C14.5999 2.61034 14.4099 2.47034 14.3899 2.37034C14.2199 1.71034 14.0799 1.04034 13.9299 0.370341Z" fill="black"/>
<path d="M24.6301 6.94957C24.6634 7.4029 24.4834 7.62957 24.0901 7.62957C23.8801 7.62957 23.6601 7.66957 23.4701 7.60957C23.3201 7.55957 23.2101 7.38957 23.0801 7.26957C23.1901 7.15957 23.3001 6.96957 23.4201 6.95957C23.8101 6.91957 24.2101 6.93957 24.6301 6.93957V6.94957Z" fill="black"/>
<path d="M8.40989 6.08044C8.14989 5.97044 7.87989 5.87044 7.62989 5.74044C7.53989 5.69044 7.42989 5.52044 7.44989 5.45044C7.48989 5.34044 7.61989 5.23044 7.73989 5.18044C7.97989 5.07044 8.60989 5.41044 8.69989 5.67044C8.79989 5.93044 8.69989 6.03044 8.40989 6.08044Z" fill="black"/>
<path d="M10.0101 2.71963C10.0101 2.71963 9.9001 2.93963 9.7901 2.96963C9.5401 3.02963 8.9801 2.48963 9.0201 2.22963C9.0401 2.11963 9.2101 1.97963 9.3201 1.95963C9.5901 1.91963 10.0101 2.34963 10.0101 2.71963Z" fill="black"/>
<path d="M22.5901 4.00042C22.4401 3.53042 22.5501 3.26042 23.0301 3.14042C23.1401 3.11042 23.3301 3.23042 23.4201 3.34042C23.4801 3.41042 23.4601 3.65042 23.4101 3.68042C23.1501 3.81042 22.8701 3.89042 22.5901 3.99042L22.6001 4.00042H22.5901Z" fill="black"/>
</g>
<defs>
<clipPath id="clip0_1409_5077">
<rect width="32.32" height="23.57" fill="white"/>
</clipPath>
</defs>
</svg>
