<svg width="39" height="24" viewBox="0 0 39 24" fill="none" xmlns="http://www.w3.org/2000/svg">
<g clip-path="url(#clip0_1417_5239)">
<path d="M18.9699 17.8096C18.7999 19.1796 18.2099 20.1796 17.1799 20.9096C14.6999 22.6496 10.4699 21.5696 9.95992 17.9596C9.92992 17.7696 9.91992 17.5796 9.91992 17.3896C9.91992 13.9396 9.91992 10.4896 9.91992 7.03956C9.91992 4.69956 11.6999 2.62956 14.0399 2.55956C17.7999 2.44956 21.5599 2.46956 25.3099 2.55956C27.3399 2.60956 28.7999 4.01956 29.2399 6.04956C29.8199 8.66956 28.2999 10.8796 25.4199 11.5096C25.5599 11.6296 25.6699 11.7096 25.7699 11.8096C26.7299 12.7996 27.7899 13.7296 28.6399 14.8096C29.7999 16.2896 29.6699 18.3196 28.4799 20.0196C27.4899 21.4296 25.4999 22.2096 23.8499 21.6996C23.1299 21.4796 22.4299 21.0796 21.8499 20.6096C21.0399 19.9596 20.3499 19.1596 19.6099 18.4296C19.4299 18.2496 19.2399 18.0796 18.9799 17.8296L18.9699 17.8096ZM16.3099 12.1696C16.3099 10.3796 16.3199 8.57956 16.3099 6.78956C16.3099 6.06956 15.8499 5.57956 15.2299 5.30956C14.6199 5.03956 13.9999 5.07956 13.4299 5.48956C12.8199 5.92956 12.5799 6.52956 12.5799 7.26956C12.5899 9.70956 12.5899 12.1396 12.5999 14.5796C12.5999 15.5196 12.5799 16.4696 12.6299 17.4096C12.6699 18.1696 13.2199 18.7596 13.9399 18.9896C14.8999 19.2896 16.3399 18.7696 16.3199 17.3096C16.2999 15.5996 16.3199 13.8896 16.3199 12.1796L16.3099 12.1696ZM19.0499 11.4896C19.0499 12.2396 19.0299 12.9296 19.0599 13.6096C19.0699 13.8296 19.1599 14.0996 19.3099 14.2596C20.2599 15.2296 21.2199 16.1896 22.1999 17.1396C22.7799 17.7096 23.3399 18.2896 23.9699 18.7996C24.5099 19.2496 25.1499 19.2096 25.7399 18.8796C26.9199 18.2096 27.1099 16.9196 26.1699 15.9596C24.7399 14.5196 23.2999 13.0896 21.8499 11.6596C21.7699 11.5796 21.6399 11.5096 21.5299 11.4996C20.7199 11.4896 19.9099 11.4996 19.0499 11.4996V11.4896ZM18.6799 5.18956C18.9999 6.28956 19.0999 7.35956 19.0299 8.43956C19.0099 8.69956 19.0699 8.80956 19.3599 8.79956C20.7399 8.78956 22.1099 8.79956 23.4899 8.79956C24.0399 8.79956 24.5899 8.83956 25.1399 8.77956C26.0999 8.67956 26.7399 7.86956 26.6799 6.87956C26.6299 5.88956 25.8999 5.16956 24.9399 5.16956C23.3799 5.16956 21.8299 5.17956 20.2699 5.18956C19.7499 5.18956 19.2299 5.18956 18.6699 5.18956H18.6799Z" fill="black"/>
</g>
<defs>
<clipPath id="clip0_1417_5239">
<rect width="39" height="24" fill="white"/>
</clipPath>
</defs>
</svg>
