<?xml version="1.0" encoding="UTF-8"?>
<svg id="Layer_1" data-name="Layer 1" xmlns="http://www.w3.org/2000/svg" xmlns:xlink="http://www.w3.org/1999/xlink" viewBox="0 0 8.78 10.54">
  <defs>
    <style>
      .cls-1 {
        fill: url(#linear-gradient);
      }
    </style>
    <linearGradient id="linear-gradient" x1="0" y1="5.27" x2="8.78" y2="5.27" gradientUnits="userSpaceOnUse">
      <stop offset="0" stop-color="#a83995"/>
      <stop offset="1" stop-color="#5e53a3"/>
    </linearGradient>
  </defs>
  <path class="cls-1" d="m3.96,0c.59-.01,1.15.11,1.71.26.19.06.39.09.58.16.46.16.91.36,1.31.64.26.18.49.4.66.67.17.27.3.57.37.89.04.2.02.4-.08.58-.06.11-.17.17-.3.18-.15.01-.29-.03-.42-.11-.07-.04-.13-.08-.2-.12-.36-.2-.72-.4-1.12-.53-.29-.1-.57-.21-.87-.27-.26-.06-.53-.11-.79-.17-.35-.08-.7-.09-1.05-.08-.39,0-.76.12-1.12.26-.32.13-.31.46-.17.67.03.05.08.09.12.14.24.21.51.38.8.51.4.18.79.36,1.19.54.59.26,1.19.49,1.78.76.4.18.81.34,1.16.61.42.32.79.7,1.04,1.17.04.08.07.16.09.25.08.26.11.53.13.8.02.22-.04.43-.07.64-.05.42-.29.75-.55,1.06-.01.01-.02.02-.04.04-.34.39-.78.63-1.27.78-.08.02-.16.05-.23.08-.33.13-.67.18-1.02.13-.04,0-.08,0-.11,0-.38,0-.75.02-1.13.01-.37,0-.73-.08-1.09-.17-.27-.07-.55-.13-.81-.22-.37-.12-.72-.3-1.06-.48-.08-.04-.15-.09-.22-.16-.19-.18-.39-.35-.54-.56-.28-.36-.44-.78-.47-1.25,0-.11.03-.21.11-.29.06-.06.12-.11.19-.16.09-.06.19-.08.28-.04.12.05.23.11.35.17.29.15.57.3.86.44.2.09.41.15.62.23.55.22,1.14.33,1.72.41.35.05.7.08,1.05.03.24-.03.48-.08.69-.2.03-.02.07-.04.1-.05.24-.1.32-.4.13-.6-.1-.11-.22-.2-.35-.29-.12-.09-.26-.15-.39-.23,0,0-.01,0-.02-.01-.31-.15-.62-.29-.94-.44-.09-.04-.19-.08-.28-.12-.35-.15-.7-.3-1.06-.45-.36-.16-.72-.31-1.08-.47-.28-.13-.55-.26-.81-.41-.52-.29-.89-.72-1.15-1.25-.1-.19-.15-.4-.18-.62-.05-.42-.01-.83.07-1.23.05-.23.17-.43.29-.63.31-.52.76-.87,1.31-1.09.16-.07.33-.11.5-.16.22-.06.44-.14.68-.16.12,0,.25-.02.37-.03.24-.01.48-.02.73-.04Z"/>
</svg>