<?xml version="1.0" encoding="UTF-8"?>
<svg id="Layer_1" data-name="Layer 1" xmlns="http://www.w3.org/2000/svg" viewBox="0 0 32.32 23.57">
  <defs>
    <style>
      .cls-1 {
        fill: #fff;
      }
    </style>
  </defs>
  <path class="cls-1" d="m0,0C10.77,0,21.55,0,32.32,0c0,7.86,0,15.71,0,23.57-10.77,0-21.55,0-32.32,0C0,15.71,0,7.86,0,0Zm22.59,4c-.22,0-.44-.01-.66-.02-.22-.01-.49.05-.64-.06-.23-.17-.39-.11-.55.01-.29.23-.56.48-.86.73-.11-.1-.2-.19-.29-.27-1.53-1.36-3.27-1.79-5.23-1.12-.27.09-.39.07-.47-.23-.15-.58-1.24-1.43-1.83-1.45-.08,0-.2,0-.24.05-.41.58-1.11.83-1.53,1.39-.08.11-.11.25-.14.39-.04.23-.05.47-.11.69-.03.12-.1.26-.2.31-.44.23-.73.59-.78,1.06-.08.67-.09,1.35-.11,2.02-.02.59,0,1.18,0,1.78-.58.04-1.17.17-1.63.61.14.36.37.45.7.32.35-.14.71-.26,1.09-.4.04.3.05.55.1.79.1.44-.03.75-.43.96-.38.2-.76.41-1.1.67-.16.12-.35.4-.31.56.25.97.71,1.83,1.57,2.41.8.53,1.14.47,1.69-.31.41-.57.93-.92,1.62-1.05.46-.09.9-.26,1.36-.38.12-.03.27,0,.4.02.66.13,1.32.25,1.98.4.23.05.47.13.68.25.48.27.9.67,1.41.86.88.33,1.8.54,2.7.8.82.23,1.47.03,1.87-.73.24-.45.31-.99.46-1.49.13-.44-.03-.78-.43-.96-.51-.24-1.04-.43-1.58-.61-.65-.21-.7-.31-.33-.89.53-.84,1.03-1.7,1.77-2.39.32-.3.25-.57-.16-.72-.22-.08-.46-.07-.77-.11.51-.75.99-1.47,1.49-2.18.21-.3.16-.52-.19-.63-.27-.08-.33-.25-.33-.49,0-.19-.01-.39-.02-.58.28-.1.56-.18.82-.31.05-.03.07-.27.01-.34-.09-.11-.28-.23-.39-.2-.48.13-.59.39-.44.86Zm-5.69,15.43c-.11-.13-.21-.21-.29-.32-.37-.54-.71-1.09-1.09-1.61-.09-.12-.3-.16-.46-.2-.03,0-.15.15-.15.24-.03,1.17-.05,2.35-.05,3.52,0,.26.2.29.41.28.2,0,.4,0,.39-.3-.02-.59-.04-1.19-.05-1.78,0-.16,0-.31,0-.47l.1-.03c.18.3.36.6.55.89.57.83.74.81,1.18.02.1-.17.19-.34.31-.49.09-.12.21-.22.32-.34,0,.76.01,1.47,0,2.19,0,.29.14.32.36.31.21,0,.44.03.44-.29,0-1.15-.01-2.29-.02-3.44,0-.3-.16-.37-.4-.25-.13.06-.26.17-.34.29-.39.57-.77,1.15-1.19,1.79Zm-16.58-.13c-.01,1.27.71,2.11,1.81,2.12,1.13,0,1.92-.85,1.92-2.09,0-1.1-.84-2.03-1.86-2.05-1.08-.02-1.86.83-1.87,2.02Zm5.16,3.27v-1.49c.18.08.32.19.47.21.29.03.61.1.87,0,.78-.3,1.07-1.38.6-2.14-.43-.7-1.08-.86-1.75-.38-.19.14-.26.08-.4-.07-.08-.09-.27-.14-.39-.11-.07.02-.14.21-.14.33-.03.7-.04,1.41-.05,2.11,0,.51,0,1.01,0,1.54h.79Zm3.43-2.45c.2,0,.36,0,.52,0,.35.01.69.02,1.04.04.25.01.35-.1.36-.34.03-.76-.72-1.45-1.47-1.33-.63.09-1.03.47-1.19,1.07-.17.62.03,1.15.52,1.56.51.42,1.07.42,1.62.08.15-.09.22-.3.32-.45-.2-.02-.4-.05-.6-.07-.03,0-.07.04-.11.06-.51.25-.9.04-1.02-.61Zm18.08-1.5c-.3-.04-.68-.25-.72.17-.06.6-.05,1.22.04,1.81.11.75.76,1.01,1.44.66.15-.08.3-.16.45-.25,0,.04,0,.08,0,.11.16.08.33.16.49.23.06-.17.18-.33.19-.5.03-.63,0-1.27.04-1.9.02-.35-.14-.44-.44-.41-.13.01-.26.05-.4.08,0,.1,0,.17,0,.24,0,.45.03.91,0,1.36-.02.34-.34.63-.63.58-.33-.06-.48-.26-.46-.62.02-.51,0-1.02,0-1.56Zm-7.2.7c.23-.06.48-.07.69-.17.5-.25.85-.07.91.54-.18-.02-.36-.04-.53-.06-.61-.07-1.21.33-1.25.83-.06.65.69,1.18,1.31.9.29-.13.54-.23.85-.03.26.16.35-.05.35-.27,0-.52,0-1.05-.04-1.57-.04-.53-.47-.93-1.01-1-.6-.08-1.11.19-1.27.84Zm-8.38.63s0,0,.01,0c-.02.3-.02.61-.06.91-.04.3-.03.51.37.51.36,0,.5-.1.45-.48-.05-.37-.03-.75-.02-1.12.01-.34.34-.7.6-.7.31,0,.56.32.57.74,0,.41,0,.83,0,1.24,0,.21.03.36.29.35.24,0,.45-.04.44-.36-.02-.55,0-1.11-.06-1.65-.09-.83-.97-1.18-1.6-.65-.19.16-.29.23-.45-.02-.06-.09-.26-.18-.33-.14-.1.05-.18.22-.19.34-.03.34,0,.69,0,1.04Zm11.48,0h0c0,.36,0,.72,0,1.08,0,.29.17.33.41.33.23,0,.37-.05.36-.32-.01-.44,0-.88,0-1.33,0-.38.23-.55.55-.6.3-.05.53.21.54.59,0,.46,0,.91-.01,1.37,0,.23.09.32.29.28.18-.04.49-.13.49-.2-.01-.69,0-1.39-.14-2.05-.12-.57-.79-.77-1.31-.47-.25.14-.46.18-.73.03-.31-.17-.44-.06-.44.31,0,.33,0,.66,0,1Zm7.79-1.53c-.29.09-.54.13-.75.24-.58.32-.6.93-.04,1.28.23.14.51.21.77.3.21.06.39.15.3.39-.08.25-.28.34-.53.22-.17-.08-.32-.24-.5-.28-.14-.03-.32.05-.48.09.04.12.04.26.12.34.42.46,1.04.54,1.64.27.33-.15.5-.38.49-.74-.01-.34-.18-.57-.51-.69-.22-.08-.45-.15-.66-.24-.1-.04-.25-.11-.26-.19-.02-.1.05-.26.13-.31.1-.06.26-.07.38-.04.17.04.31.17.47.2.11.02.24-.07.37-.11-.06-.13-.08-.31-.18-.38-.24-.15-.51-.24-.76-.35ZM20.01.48c-.05-.05-.1-.13-.17-.16-.22-.09-.42-.09-.56.17-.37.71-.76,1.41-1.12,2.12-.04.08,0,.27.08.34.22.21.43.15.57-.11.38-.69.74-1.38,1.11-2.08.04-.07.05-.16.08-.28Zm2.09,9.41c-.16.09-.32.15-.43.25-.04.04,0,.25.07.28.6.3,1.21.58,1.83.84.08.03.27-.1.36-.2.04-.05,0-.27-.07-.31-.57-.3-1.15-.58-1.75-.87ZM13.93.37c.15.67.29,1.34.46,2,.03.1.22.24.29.22.12-.03.22-.17.29-.29.04-.07.03-.19,0-.28-.1-.46-.2-.91-.3-1.37-.09-.39-.33-.42-.74-.28Zm10.7,6.59c-.42,0-.82-.03-1.21.02-.12.01-.23.2-.34.31.13.12.24.29.39.34.19.06.41.02.62.02q.59,0,.54-.68Zm-16.22-.87c.28-.05.38-.15.29-.41-.09-.25-.72-.59-.96-.49-.12.05-.25.16-.29.27-.02.07.09.24.18.29.25.14.52.23.78.34Zm1.6-3.37c0-.37-.42-.8-.69-.76-.12.02-.29.16-.3.27-.04.26.52.79.77.74.11-.02.19-.2.22-.25Z"/>
  <path d="m22.58,3.99c0,.19.02.39.02.58,0,.24.06.41.33.49.35.11.4.32.19.63-.5.71-.98,1.43-1.49,2.18.31.04.56.03.77.11.41.15.47.43.16.72-.74.69-1.24,1.55-1.77,2.39-.37.58-.32.68.33.89.54.18,1.07.37,1.58.61.39.18.56.52.43.96-.15.5-.22,1.04-.46,1.49-.4.75-1.05.96-1.87.73-.9-.26-1.82-.47-2.7-.8-.51-.19-.93-.58-1.41-.86-.21-.12-.45-.2-.68-.25-.66-.15-1.32-.27-1.98-.4-.13-.02-.27-.05-.4-.02-.45.12-.9.29-1.36.38-.7.13-1.22.48-1.62,1.05-.56.77-.89.84-1.69.31-.86-.57-1.32-1.44-1.57-2.41-.04-.15.15-.43.31-.56.34-.26.72-.46,1.1-.67.4-.22.53-.53.43-.96-.05-.24-.06-.49-.1-.79-.38.14-.73.26-1.09.4-.33.13-.56.04-.7-.32.46-.44,1.05-.57,1.63-.61,0-.61-.01-1.2,0-1.78.02-.67.03-1.35.11-2.02.06-.47.34-.83.78-1.06.1-.05.17-.2.2-.31.06-.23.06-.46.11-.69.03-.13.06-.28.14-.39.42-.56,1.12-.81,1.53-1.39.03-.05.16-.05.24-.05.59.02,1.68.87,1.83,1.45.08.3.2.33.47.23,1.97-.67,3.7-.24,5.23,1.12.09.08.18.17.29.27.3-.25.57-.5.86-.73.17-.13.33-.18.55-.01.15.11.42.05.64.06.22.01.44.02.66.02h-.01Zm-12.58.98c-.05-.02-.1-.05-.15-.07-.07.11-.18.21-.19.32-.08.56-.19,1.12-.18,1.68.04,1.21.12,2.43.25,3.64.07.65-.13,1.1-.66,1.44-.29.18-.58.38-.89.54-.27.14-.31.32-.19.58.29.67.68,1.26,1.3,1.69.45.31.56.3.89-.12.62-.77,1.35-1.27,2.38-1.44,1.69-.27,2.37-1.06,2.46-2.77.08-1.48.03-2.96.04-4.44,0-.06-.04-.12-.06-.21-.43.15-.55.51-.57.86-.04.6-.02,1.21,0,1.82,0,.25.1.54-.24.6-.07.01-.26-.35-.29-.55-.08-.68-.09-1.38-.16-2.06-.12-1.19-.26-2.39-.41-3.58-.01-.1-.11-.19-.17-.28-.08.08-.21.15-.23.24-.06.32-.11.65-.11.98-.01,1.37,0,2.73,0,4.13-.34.09-.37.08-.43-.31-.03-.19-.05-.38-.05-.58,0-1.42,0-2.85-.02-4.27,0-.25-.15-.49-.23-.74-.14.25-.39.49-.41.74-.08,1.32-.1,2.65-.13,3.98-.01.49,0,.99,0,1.48-.48.08-.52.04-.52-.46.01-1.33.03-2.65.04-3.98,0-.28-.04-.55-.06-.83-.05,0-.09-.02-.14-.03-.06.1-.17.2-.18.31-.07.65-.15,1.29-.16,1.94-.01,1.01.03,2.02.05,3.03,0,.19.07.41-.24.43-.28.01-.31-.16-.31-.38,0-.19,0-.39,0-.58,0-.91,0-1.82,0-2.73Zm10.27,3.68c-.2-.04-.39-.09-.59-.12-.38-.06-.76-.11-1.14-.15-.28-.03-.56-.06-.84-.05-.12,0-.29.05-.35.13-.25.38-.48.78-.71,1.17-.46.78-.32,1.64-.32,2.47,0,.81.32,1.49,1.03,1.92.41.25.84.48,1.3.64.7.24,1.43.42,2.15.6.93.24,1.33,0,1.63-.9.07-.22.13-.45.19-.68.11-.4-.01-.67-.42-.8-.52-.17-1.06-.33-1.57-.54-.66-.27-.79-.59-.42-1.2.5-.82,1.08-1.6,1.62-2.4.08-.12.16-.24.24-.35-.17-.04-.31-.03-.38.04-.29.27-.59.54-.84.85-.18.23-.33.35-.65.29-.72-.15-1.37.01-1.91.54-.07.07-.17.12-.26.18-.03-.02-.07-.04-.1-.05.06-.19.08-.44.2-.57.43-.44.96-.74,1.59-.67.6.07.93-.26,1.21-.69.55-.84,1.08-1.7,1.61-2.55.07-.11.09-.25.14-.38-.03-.02-.06-.05-.09-.07-.11.06-.25.1-.34.18-.6.61-1.22,1.2-1.77,1.85-.3.35-.82.74-.22,1.33Zm-4.18,4.74c-.06-.23-.08-.35-.11-.47-.54-1.61-.18-3.06.75-4.43.39-.58.75-1.18,1.1-1.79.42-.72.71-1.58,1.9-1.4-.1-.19-.13-.31-.21-.39-1.51-1.42-3.34-1.78-5.22-1.11-.12.04-.29.19-.29.28,0,.51.05,1.03.08,1.59.23-.11.38-.19.55-.26.47-.2.82-.04.95.45.05.19.04.41.05.61,0,.47,0,.94,0,1.4.03,1.77.09,3.54-1.07,5.06-.03.04-.03.1-.07.24.52.06,1.01.12,1.59.18Zm3.22-5.39c.06.04.13.09.19.13.06-.12.09-.26.17-.36.65-.8,1.31-1.59,1.96-2.4.24-.3.44-.63.66-.94-.04-.05-.09-.09-.13-.14-.15.07-.32.11-.44.21-1.04.86-1.7,2.02-2.4,3.14-.05.09,0,.24,0,.36Zm-.35-.85s.05.02.07.04c.7-.95,1.39-1.89,2.09-2.84-.01-.03-.02-.06-.04-.1-.15.06-.36.08-.45.19-.36.46-.71.94-1.02,1.44-.25.4-.44.84-.65,1.26Zm.17-1.47c-.73.62-.94,1.48-1.37,2.26.41-.03,1.37-1.68,1.37-2.26Z"/>
  <path d="m16.9,19.42c.43-.64.8-1.22,1.19-1.79.08-.12.21-.23.34-.29.24-.12.4-.05.4.25,0,1.15,0,2.29.02,3.44,0,.32-.23.29-.44.29-.22,0-.37-.02-.36-.31.02-.71,0-1.43,0-2.19-.11.11-.23.21-.32.34-.11.16-.21.32-.31.49-.45.79-.62.81-1.18-.02-.2-.29-.37-.59-.55-.89l-.1.03c0,.16,0,.31,0,.47.02.59.03,1.19.05,1.78.01.29-.18.29-.39.3-.21,0-.42-.02-.41-.28,0-1.17.03-2.35.05-3.52,0-.08.12-.25.15-.24.16.04.37.08.46.2.38.52.73,1.08,1.09,1.61.07.11.17.19.29.32Z"/>
  <path d="m.32,19.29c0-1.19.79-2.04,1.87-2.02,1.02.01,1.86.95,1.86,2.05,0,1.24-.79,2.1-1.92,2.09-1.1,0-1.82-.85-1.81-2.12Zm1.85-1.37c-.5,0-.99.47-1.14,1.09-.24,1,.51,1.86,1.44,1.64.57-.13.73-.61.82-1.09.16-.78-.44-1.64-1.12-1.65Z"/>
  <path d="m5.48,22.56h-.79c0-.53,0-1.04,0-1.54,0-.7.02-1.41.05-2.11,0-.12.07-.32.14-.33.12-.03.31.02.39.11.14.15.21.2.4.07.67-.47,1.32-.32,1.75.38.46.76.18,1.84-.6,2.14-.25.1-.58.04-.87,0-.15-.02-.3-.13-.47-.21v1.49Zm1.45-2.61c0-.44-.38-.9-.74-.92-.37-.01-.72.45-.72.92,0,.44.38.86.74.84.35-.02.71-.45.71-.85Z"/>
  <path d="m8.91,20.11c.12.65.51.85,1.02.61.04-.02.07-.06.11-.06.2.02.4.04.6.07-.11.15-.18.36-.32.45-.55.33-1.11.34-1.62-.08-.49-.4-.68-.94-.52-1.56.16-.6.55-.97,1.19-1.07.75-.11,1.5.58,1.47,1.33-.01.24-.12.35-.36.34-.35-.02-.69-.03-1.04-.04-.16,0-.33,0-.52,0Zm1.21-.52c-.14-.36-.33-.62-.66-.57-.23.04-.51.18-.46.57h1.12Z"/>
  <path d="m26.99,18.61c0,.54.02,1.05,0,1.56-.02.35.13.56.46.62.29.05.62-.24.63-.58.02-.45,0-.91,0-1.36,0-.07,0-.13,0-.24.14-.03.27-.06.4-.08.3-.03.46.06.44.41-.04.63-.01,1.27-.04,1.9,0,.17-.12.34-.19.5-.16-.08-.33-.16-.49-.23,0-.04,0-.08,0-.11-.15.08-.3.17-.45.25-.68.35-1.33.08-1.44-.66-.09-.59-.11-1.21-.04-1.81.04-.41.42-.21.72-.17Z"/>
  <path d="m19.79,19.31c.16-.65.67-.92,1.27-.84.54.07.96.46,1.01,1,.04.52.04,1.05.04,1.57,0,.22-.09.43-.35.27-.31-.2-.57-.1-.85.03-.62.28-1.37-.25-1.31-.9.05-.5.65-.9,1.25-.83.17.02.35.04.53.06-.06-.61-.41-.79-.91-.54-.21.1-.46.12-.69.17Zm1.1.66c-.23.21-.4.36-.56.52.14.14.34.42.42.39.24-.09.44-.3.66-.46-.14-.13-.29-.25-.51-.45Z"/>
  <path d="m11.41,19.94c0-.35-.02-.69,0-1.04,0-.12.09-.29.19-.34.07-.04.28.05.33.14.16.25.26.18.45.02.64-.53,1.51-.18,1.6.65.06.55.04,1.1.06,1.65.01.32-.2.35-.44.36-.25,0-.29-.14-.29-.35,0-.41,0-.83,0-1.24,0-.41-.26-.74-.57-.74-.26,0-.58.36-.6.7-.02.37-.03.75.02,1.12.05.38-.1.48-.45.48-.4,0-.41-.21-.37-.51.04-.3.04-.61.06-.91,0,0,0,0-.01,0Z"/>
  <path d="m22.89,19.93c0-.33,0-.66,0-1,0-.37.13-.48.44-.31.27.15.48.12.73-.03.52-.3,1.2-.09,1.31.47.14.67.13,1.37.14,2.05,0,.07-.32.16-.49.2-.2.04-.3-.06-.29-.28.02-.46.02-.91.01-1.37,0-.37-.24-.64-.54-.59-.32.05-.56.22-.55.6,0,.44,0,.88,0,1.33,0,.27-.13.32-.36.32-.24,0-.41-.04-.41-.33,0-.36,0-.72,0-1.08h0Z"/>
  <path d="m30.68,18.4c.25.11.52.2.76.35.1.06.12.25.18.38-.12.04-.25.13-.37.11-.16-.03-.31-.16-.47-.2-.12-.03-.28-.02-.38.04-.08.05-.15.22-.13.31.02.08.16.15.26.19.22.09.44.16.66.24.32.12.49.35.51.69.01.36-.16.59-.49.74-.6.27-1.22.19-1.64-.27-.07-.08-.08-.23-.12-.34.16-.03.33-.12.48-.09.18.04.33.2.5.28.25.12.45.03.53-.22.08-.25-.1-.33-.3-.39-.26-.08-.54-.16-.77-.3-.57-.34-.55-.96.04-1.28.21-.12.47-.15.75-.24Z"/>
  <path d="m20.01.48c-.04.13-.05.21-.08.28-.37.69-.74,1.39-1.11,2.08-.14.26-.35.32-.57.11-.07-.07-.12-.26-.08-.34.36-.71.75-1.41,1.12-2.12.14-.26.33-.26.56-.17.07.03.12.11.17.16Z"/>
  <path d="m22.11,9.9c.6.29,1.19.57,1.75.87.07.03.12.26.07.31-.08.1-.28.23-.36.2-.62-.25-1.23-.54-1.83-.84-.06-.03-.1-.24-.07-.28.11-.11.26-.16.43-.25Z"/>
  <path d="m13.93.37c.41-.14.66-.11.74.28.1.46.21.91.3,1.37.02.09.03.21,0,.28-.07.12-.18.26-.29.29-.08.02-.27-.12-.29-.22-.17-.66-.31-1.33-.46-2Z"/>
  <path d="m24.63,6.95q.05.68-.54.68c-.21,0-.43.04-.62-.02-.15-.05-.26-.22-.39-.34.11-.11.22-.3.34-.31.39-.04.79-.02,1.21-.02Z"/>
  <path d="m8.41,6.08c-.26-.11-.53-.21-.78-.34-.09-.05-.2-.22-.18-.29.04-.11.17-.22.29-.27.24-.11.87.23.96.49.1.26,0,.36-.29.41Z"/>
  <path d="m10.01,2.72s-.11.22-.22.25c-.25.06-.81-.48-.77-.74.02-.11.19-.25.3-.27.27-.04.69.39.69.76Z"/>
  <path d="m22.59,4c-.15-.47-.04-.74.44-.86.11-.03.3.09.39.2.06.07.04.31-.01.34-.26.13-.54.21-.82.31,0,0,.01.01.01.01Z"/>
  <path class="cls-1" d="m10.01,4.97c0,.91,0,1.82,0,2.73,0,.19,0,.39,0,.58,0,.21.04.39.31.38.31-.02.25-.24.24-.43-.02-1.01-.07-2.02-.05-3.03,0-.65.09-1.29.16-1.94.01-.11.12-.21.18-.31.05,0,.09.02.14.03.02.28.06.55.06.83,0,1.33-.03,2.65-.04,3.98,0,.51.03.54.52.46,0-.49-.01-.98,0-1.48.03-1.33.06-2.65.13-3.98.01-.25.26-.49.41-.74.08.25.22.49.23.74.02,1.42.02,2.85.02,4.27,0,.19.02.39.05.58.06.39.09.41.43.31,0-1.39,0-2.76,0-4.13,0-.33.05-.66.11-.98.02-.09.15-.16.23-.24.06.09.16.18.17.28.15,1.19.29,2.39.41,3.58.07.69.08,1.38.16,2.06.02.2.22.56.29.55.34-.05.24-.35.24-.6-.02-.61-.04-1.21,0-1.82.03-.34.14-.7.57-.86.03.09.07.15.06.21,0,1.48.04,2.96-.04,4.44-.09,1.72-.77,2.5-2.46,2.77-1.03.17-1.76.67-2.38,1.44-.34.42-.44.43-.89.12-.61-.42-1-1.02-1.3-1.69-.11-.26-.07-.44.19-.58.31-.16.59-.36.89-.54.53-.34.73-.79.66-1.44-.13-1.21-.21-2.42-.25-3.64-.02-.56.1-1.12.18-1.68.02-.11.13-.22.19-.32.05.02.1.05.15.07Z"/>
  <path class="cls-1" d="m20.28,8.65c-.6-.59-.08-.98.22-1.33.55-.65,1.17-1.24,1.77-1.85.09-.09.22-.12.34-.18.03.02.06.05.09.07-.04.13-.07.27-.14.38-.53.85-1.07,1.71-1.61,2.55-.28.43-.61.75-1.21.69-.63-.07-1.16.23-1.59.67-.13.13-.14.37-.2.57.03.02.07.04.1.05.09-.06.19-.1.26-.18.54-.53,1.19-.7,1.91-.54.32.07.47-.05.65-.29.24-.31.54-.58.84-.85.08-.07.21-.08.38-.04-.08.12-.16.24-.24.35-.54.8-1.12,1.58-1.62,2.4-.37.6-.24.92.42,1.2.51.21,1.04.37,1.57.54.41.13.53.4.42.8-.06.23-.12.45-.19.68-.3.91-.71,1.14-1.63.9-.72-.18-1.45-.36-2.15-.6-.45-.15-.89-.38-1.3-.64-.7-.44-1.02-1.11-1.03-1.92,0-.83-.14-1.69.32-2.47.23-.39.46-.79.71-1.17.06-.09.23-.13.35-.13.28,0,.56.02.84.05.38.04.76.09,1.14.15.2.03.39.08.59.12Z"/>
  <path class="cls-1" d="m16.1,13.39c-.57-.07-1.07-.12-1.59-.18.04-.14.04-.2.07-.24,1.16-1.52,1.1-3.29,1.07-5.06,0-.47,0-.94,0-1.4,0-.21,0-.42-.05-.61-.13-.49-.49-.65-.95-.45-.16.07-.32.15-.55.26-.04-.56-.08-1.08-.08-1.59,0-.1.17-.24.29-.28,1.88-.67,3.71-.31,5.22,1.11.08.07.11.2.21.39-1.19-.18-1.48.67-1.9,1.4-.35.61-.71,1.21-1.1,1.79-.93,1.37-1.29,2.82-.75,4.43.04.11.06.24.11.47Z"/>
  <path class="cls-1" d="m19.32,8.01c0-.12-.05-.27,0-.36.69-1.13,1.36-2.28,2.4-3.14.12-.1.3-.14.44-.21.04.05.09.09.13.14-.22.32-.42.64-.66.94-.65.81-1.31,1.6-1.96,2.4-.08.1-.12.24-.17.36-.06-.04-.13-.09-.19-.13Z"/>
  <path class="cls-1" d="m18.97,7.15c.22-.42.4-.86.65-1.26.31-.5.66-.98,1.02-1.44.09-.11.3-.13.45-.19.01.03.02.06.04.1-.7.95-1.39,1.89-2.09,2.84-.02-.01-.05-.02-.07-.04Z"/>
  <path class="cls-1" d="m19.14,5.68c0,.58-.96,2.23-1.37,2.26.43-.78.63-1.64,1.37-2.26Z"/>
  <path class="cls-1" d="m2.17,17.93c.68,0,1.28.86,1.12,1.65-.1.48-.25.96-.82,1.09-.93.22-1.68-.64-1.44-1.64.15-.63.64-1.1,1.14-1.09Z"/>
  <path class="cls-1" d="m6.93,19.95c0,.39-.37.83-.71.85-.37.02-.74-.4-.74-.84,0-.47.35-.93.72-.92.36.01.74.48.74.92Z"/>
  <path class="cls-1" d="m10.11,19.59h-1.12c-.04-.39.24-.53.46-.57.32-.05.51.2.66.57Z"/>
  <path class="cls-1" d="m20.88,19.97c.22.19.37.32.51.45-.22.16-.41.37-.66.46-.08.03-.27-.25-.42-.39.17-.15.33-.31.56-.52Z"/>
</svg>